<?xml version="1.0" encoding="UTF-8"?>
<svg width="29px" height="31px" viewBox="0 0 29 31" version="1.1" xmlns="http://www.w3.org/2000/svg" xmlns:xlink="http://www.w3.org/1999/xlink">
    <!-- Generator: Sketch 40.3 (33839) - http://www.bohemiancoding.com/sketch -->
    <title>Group 5</title>
    <desc>Created with Sketch.</desc>
    <defs></defs>
    <g id="Page-1" stroke="none" stroke-width="1" fill="none" fill-rule="evenodd" stroke-linecap="square">
        <g id="Group-5" transform="translate(0.000000, 1.000000)" stroke="#3C4858" stroke-width="2">
            <g id="Group-3" transform="translate(5.000000, 0.000000)">
                <path d="M23,0 L23,20" id="Line"></path>
                <path d="M22,20 L2,20" id="Line"></path>
                <path d="M22,0 L2,0" id="Line"></path>
                <path d="M1,0 L1,20" id="Line"></path>
            </g>
            <g id="Group-3" transform="translate(5.000000, 0.000000)">
                <path d="M23,0 L23,20" id="Line"></path>
                <path d="M22,20 L2,20" id="Line"></path>
                <path d="M22,0 L2,0" id="Line"></path>
                <path d="M1,0 L1,20" id="Line"></path>
            </g>
            <g id="Group-3" transform="translate(0.000000, 2.000000)">
                <path d="M23,19 L23,21" id="Line"></path>
                <polyline id="Line" points="22 21 11 21 7 25.5 4 21 2 21"></polyline>
                <path d="M4,1 L2,1" id="Line"></path>
                <path d="M1,1 L1,21" id="Line"></path>
            </g>
        </g>
    </g>
</svg>